<?xml version="1.0" encoding="UTF-8" standalone="no"?>
<!DOCTYPE svg PUBLIC "-//W3C//DTD SVG 1.1//EN"
 "http://www.w3.org/Graphics/SVG/1.1/DTD/svg11.dtd">
<!-- Generated by graphviz version 2.40.1 (20161225.0304)
 -->
<!-- Title: G Pages: 1 -->
<svg width="359pt" height="847pt"
 viewBox="0.00 0.00 358.80 847.25" xmlns="http://www.w3.org/2000/svg" xmlns:xlink="http://www.w3.org/1999/xlink">
<g id="graph0" class="graph" transform="scale(1 1) rotate(0) translate(4 843.2548)">
<title>G</title>
<polygon fill="#ffffff" stroke="transparent" points="-4,4 -4,-843.2548 354.799,-843.2548 354.799,4 -4,4"/>
<!-- A0 -->
<g id="node1" class="node">
<title>A0</title>
<g transform="translate(62.6235,-162.6274)" style="fill:none;stroke:black;stroke-width:1px"><circle cx="0" cy="-20" r="7.5" />
                <line x1="0" y1="-12.5" x2="0" y2="5" />
                <line x1="-15" y1="-5" x2="15" y2="-5" />
                <line x1="0" y1="5" x2="-15" y2="17" />
                <line x1="0" y1="5" x2="15" y2="17" /></g>
<text text-anchor="middle" x="62.6235" y="-137.6274" font-family="Helvetica,sans-Serif" font-size="10.00" fill="#000000">Backup Admin</text>
</g>
<!-- A1 -->
<g id="node2" class="node">
<title>A1</title>
<ellipse fill="#8fbc8f" stroke="#000000" cx="263.023" cy="-316.6274" rx="62.7457" ry="18"/>
<text text-anchor="middle" x="263.023" y="-313.6274" font-family="Helvetica,sans-Serif" font-size="10.00" fill="#000000">Manage backups</text>
</g>
<!-- A0&#45;&gt;A1 -->
<g id="edge1" class="edge">
<title>A0&#45;&gt;A1</title>
<path fill="none" stroke="#000000" d="M87.0733,-201.7408C107.5994,-229.476 139.2846,-266.7827 175.247,-289.6274 186.417,-296.723 199.5707,-302.0557 212.2478,-306.0228"/>
</g>
<!-- A2 -->
<g id="node3" class="node">
<title>A2</title>
<ellipse fill="#8fbc8f" stroke="#000000" cx="263.023" cy="-257.6274" rx="57.2716" ry="22.7556"/>
<text text-anchor="middle" x="263.023" y="-260.6274" font-family="Helvetica,sans-Serif" font-size="10.00" fill="#000000">See backup</text>
<text text-anchor="middle" x="263.023" y="-248.6274" font-family="Helvetica,sans-Serif" font-size="10.00" fill="#000000">histories</text>
</g>
<!-- A0&#45;&gt;A2 -->
<g id="edge2" class="edge">
<title>A0&#45;&gt;A2</title>
<path fill="none" stroke="#000000" d="M124.2981,-201.2856C140.6106,-210.0905 158.3793,-219.1363 175.247,-226.6274 188.9833,-232.7279 204.3235,-238.4871 218.2893,-243.348"/>
</g>
<!-- A3 -->
<g id="node4" class="node">
<title>A3</title>
<ellipse fill="#8fbc8f" stroke="#000000" cx="263.023" cy="-194.6274" rx="61.1301" ry="22.7556"/>
<text text-anchor="middle" x="263.023" y="-197.6274" font-family="Helvetica,sans-Serif" font-size="10.00" fill="#000000">Auto cleanup</text>
<text text-anchor="middle" x="263.023" y="-185.6274" font-family="Helvetica,sans-Serif" font-size="10.00" fill="#000000">backups</text>
</g>
<!-- A0&#45;&gt;A3 -->
<g id="edge3" class="edge">
<title>A0&#45;&gt;A3</title>
<path fill="none" stroke="#000000" d="M124.3852,-174.565C150.3761,-178.3262 180.434,-182.6759 205.9045,-186.3617"/>
</g>
<!-- A8 -->
<g id="node9" class="node">
<title>A8</title>
<ellipse fill="#f4a460" stroke="#000000" cx="263.023" cy="-135.6274" rx="61.7095" ry="18"/>
<text text-anchor="middle" x="263.023" y="-132.6274" font-family="Helvetica,sans-Serif" font-size="10.00" fill="#000000">Perform restores</text>
</g>
<!-- A0&#45;&gt;A8 -->
<g id="edge6" class="edge">
<title>A0&#45;&gt;A8</title>
<path fill="none" stroke="#000000" d="M124.3852,-156.3816C151.0661,-152.3875 182.0329,-147.7517 207.9233,-143.8759"/>
</g>
<!-- A10 -->
<g id="node11" class="node">
<title>A10</title>
<ellipse fill="#add8e6" stroke="#000000" cx="263.023" cy="-81.6274" rx="69.9385" ry="18"/>
<text text-anchor="middle" x="263.023" y="-78.6274" font-family="Helvetica,sans-Serif" font-size="10.00" fill="#000000">Backup SQL Server</text>
</g>
<!-- A0&#45;&gt;A10 -->
<g id="edge8" class="edge">
<title>A0&#45;&gt;A10</title>
<path fill="none" stroke="#000000" d="M124.2979,-132.0407C140.6103,-123.8168 158.3792,-115.4326 175.247,-108.6274 187.8147,-103.5571 201.7136,-98.8771 214.674,-94.8873"/>
</g>
<!-- A11 -->
<g id="node12" class="node">
<title>A11</title>
<ellipse fill="#add8e6" stroke="#000000" cx="263.023" cy="-22.6274" rx="71.8153" ry="22.7556"/>
<text text-anchor="middle" x="263.023" y="-25.6274" font-family="Helvetica,sans-Serif" font-size="10.00" fill="#000000">Record recovery</text>
<text text-anchor="middle" x="263.023" y="-13.6274" font-family="Helvetica,sans-Serif" font-size="10.00" fill="#000000">tests</text>
</g>
<!-- A0&#45;&gt;A11 -->
<g id="edge9" class="edge">
<title>A0&#45;&gt;A11</title>
<path fill="none" stroke="#000000" d="M91.9401,-129.524C113.001,-105.5489 143.2265,-74.8754 175.247,-54.6274 185.803,-47.9524 197.9499,-42.3978 209.7758,-37.8935"/>
</g>
<!-- A4 -->
<g id="node5" class="node">
<title>A4</title>
<g transform="translate(62.6235,-435.6274)" style="fill:none;stroke:black;stroke-width:1px"><circle cx="0" cy="-20" r="7.5" />
                <line x1="0" y1="-12.5" x2="0" y2="5" />
                <line x1="-15" y1="-5" x2="15" y2="-5" />
                <line x1="0" y1="5" x2="-15" y2="17" />
                <line x1="0" y1="5" x2="15" y2="17" /></g>
<text text-anchor="middle" x="62.6235" y="-410.6274" font-family="Helvetica,sans-Serif" font-size="10.00" fill="#000000">IT Leadership</text>
</g>
<!-- A5 -->
<g id="node6" class="node">
<title>A5</title>
<ellipse fill="#8fbc8f" stroke="#000000" cx="263.023" cy="-501.6274" rx="79.8289" ry="22.7556"/>
<text text-anchor="middle" x="263.023" y="-504.6274" font-family="Helvetica,sans-Serif" font-size="10.00" fill="#000000">See backup</text>
<text text-anchor="middle" x="263.023" y="-492.6274" font-family="Helvetica,sans-Serif" font-size="10.00" fill="#000000">histories/schedules</text>
</g>
<!-- A4&#45;&gt;A5 -->
<g id="edge4" class="edge">
<title>A4&#45;&gt;A5</title>
<path fill="none" stroke="#000000" d="M122.4785,-457.4442C150.0433,-466.1098 182.4983,-476.3127 209.2718,-484.7295"/>
</g>
<!-- A12 -->
<g id="node13" class="node">
<title>A12</title>
<ellipse fill="#add8e6" stroke="#000000" cx="263.023" cy="-438.6274" rx="74.047" ry="22.7556"/>
<text text-anchor="middle" x="263.023" y="-441.6274" font-family="Helvetica,sans-Serif" font-size="10.00" fill="#000000">Get weekly log of</text>
<text text-anchor="middle" x="263.023" y="-429.6274" font-family="Helvetica,sans-Serif" font-size="10.00" fill="#000000">backups</text>
</g>
<!-- A4&#45;&gt;A12 -->
<g id="edge10" class="edge">
<title>A4&#45;&gt;A12</title>
<path fill="none" stroke="#000000" d="M122.4785,-438.6274C143.3539,-438.6274 167.0341,-438.6274 188.9271,-438.6274"/>
</g>
<!-- A13 -->
<g id="node14" class="node">
<title>A13</title>
<ellipse fill="#add8e6" stroke="#000000" cx="263.023" cy="-375.6274" rx="80.9104" ry="22.7556"/>
<text text-anchor="middle" x="263.023" y="-378.6274" font-family="Helvetica,sans-Serif" font-size="10.00" fill="#000000">See log of recovery</text>
<text text-anchor="middle" x="263.023" y="-366.6274" font-family="Helvetica,sans-Serif" font-size="10.00" fill="#000000">tests</text>
</g>
<!-- A4&#45;&gt;A13 -->
<g id="edge11" class="edge">
<title>A4&#45;&gt;A13</title>
<path fill="none" stroke="#000000" d="M122.4785,-419.8107C150.0433,-411.1451 182.4983,-400.9421 209.2718,-392.5253"/>
</g>
<!-- A6 -->
<g id="node7" class="node">
<title>A6</title>
<g transform="translate(62.6235,-687.6274)" style="fill:none;stroke:black;stroke-width:1px"><circle cx="0" cy="-20" r="7.5" />
                <line x1="0" y1="-12.5" x2="0" y2="5" />
                <line x1="-15" y1="-5" x2="15" y2="-5" />
                <line x1="0" y1="5" x2="-15" y2="17" />
                <line x1="0" y1="5" x2="15" y2="17" /></g>
<text text-anchor="middle" x="62.6235" y="-662.6274" font-family="Helvetica,sans-Serif" font-size="10.00" fill="#000000">Product Owner</text>
</g>
<!-- A7 -->
<g id="node8" class="node">
<title>A7</title>
<ellipse fill="#8fbc8f" stroke="#000000" cx="263.023" cy="-816.6274" rx="87.5526" ry="22.7556"/>
<text text-anchor="middle" x="263.023" y="-819.6274" font-family="Helvetica,sans-Serif" font-size="10.00" fill="#000000">See product&#39;s backup</text>
<text text-anchor="middle" x="263.023" y="-807.6274" font-family="Helvetica,sans-Serif" font-size="10.00" fill="#000000">history/schedule</text>
</g>
<!-- A6&#45;&gt;A7 -->
<g id="edge5" class="edge">
<title>A6&#45;&gt;A7</title>
<path fill="none" stroke="#000000" d="M98.6179,-726.8489C119.5585,-746.3457 147.2784,-769.6096 175.247,-785.6274 184.503,-790.9284 194.8206,-795.5565 205.0372,-799.5064"/>
</g>
<!-- A9 -->
<g id="node10" class="node">
<title>A9</title>
<ellipse fill="#f4a460" stroke="#000000" cx="263.023" cy="-753.6274" rx="86.6904" ry="22.7556"/>
<text text-anchor="middle" x="263.023" y="-756.6274" font-family="Helvetica,sans-Serif" font-size="10.00" fill="#000000">Get product&#39;s backup</text>
<text text-anchor="middle" x="263.023" y="-744.6274" font-family="Helvetica,sans-Serif" font-size="10.00" fill="#000000">alerts</text>
</g>
<!-- A6&#45;&gt;A9 -->
<g id="edge7" class="edge">
<title>A6&#45;&gt;A9</title>
<path fill="none" stroke="#000000" d="M125.4813,-710.3882C151.7674,-718.6518 182.0545,-728.1732 207.5051,-736.1742"/>
</g>
<!-- A14 -->
<g id="node15" class="node">
<title>A14</title>
<ellipse fill="#add8e6" stroke="#000000" cx="263.023" cy="-690.6274" rx="61.6593" ry="22.7556"/>
<text text-anchor="middle" x="263.023" y="-693.6274" font-family="Helvetica,sans-Serif" font-size="10.00" fill="#000000">Email service</text>
<text text-anchor="middle" x="263.023" y="-681.6274" font-family="Helvetica,sans-Serif" font-size="10.00" fill="#000000">requests</text>
</g>
<!-- A6&#45;&gt;A14 -->
<g id="edge12" class="edge">
<title>A6&#45;&gt;A14</title>
<path fill="none" stroke="#000000" d="M125.4813,-690.6274C149.5864,-690.6274 177.0562,-690.6274 201.0754,-690.6274"/>
</g>
<!-- A15 -->
<g id="node16" class="node">
<title>A15</title>
<ellipse fill="#add8e6" stroke="#000000" cx="263.023" cy="-627.6274" rx="72.6898" ry="22.7556"/>
<text text-anchor="middle" x="263.023" y="-630.6274" font-family="Helvetica,sans-Serif" font-size="10.00" fill="#000000">Manually backup</text>
<text text-anchor="middle" x="263.023" y="-618.6274" font-family="Helvetica,sans-Serif" font-size="10.00" fill="#000000">product</text>
</g>
<!-- A6&#45;&gt;A15 -->
<g id="edge13" class="edge">
<title>A6&#45;&gt;A15</title>
<path fill="none" stroke="#000000" d="M125.4813,-670.8667C153.2596,-662.134 185.5061,-651.9966 211.7911,-643.7333"/>
</g>
<!-- A16 -->
<g id="node17" class="node">
<title>A16</title>
<ellipse fill="#add8e6" stroke="#000000" cx="263.023" cy="-564.6274" rx="74.047" ry="22.7556"/>
<text text-anchor="middle" x="263.023" y="-567.6274" font-family="Helvetica,sans-Serif" font-size="10.00" fill="#000000">Get weekly log of</text>
<text text-anchor="middle" x="263.023" y="-555.6274" font-family="Helvetica,sans-Serif" font-size="10.00" fill="#000000">product&#39;s backup</text>
</g>
<!-- A6&#45;&gt;A16 -->
<g id="edge14" class="edge">
<title>A6&#45;&gt;A16</title>
<path fill="none" stroke="#000000" d="M98.6179,-654.4059C119.5585,-634.9091 147.2784,-611.6452 175.247,-595.6274 185.7652,-589.6036 197.6543,-584.4486 209.2082,-580.1704"/>
</g>
</g>
</svg>
