<?xml version="1.0" encoding="UTF-8" standalone="no"?>
<!DOCTYPE svg PUBLIC "-//W3C//DTD SVG 1.1//EN"
 "http://www.w3.org/Graphics/SVG/1.1/DTD/svg11.dtd">
<!-- Generated by graphviz version 2.40.1 (20161225.0304)
 -->
<!-- Title: G Pages: 1 -->
<svg width="353pt" height="865pt"
 viewBox="0.00 0.00 352.91 864.74" xmlns="http://www.w3.org/2000/svg" xmlns:xlink="http://www.w3.org/1999/xlink">
<g id="graph0" class="graph" transform="scale(1 1) rotate(0) translate(4 860.7401)">
<title>G</title>
<polygon fill="#ffffff" stroke="transparent" points="-4,4 -4,-860.7401 348.9144,-860.7401 348.9144,4 -4,4"/>
<!-- A0 -->
<g id="node1" class="node">
<title>A0</title>
<g transform="translate(62.6235,-162.6274)" style="fill:none;stroke:black;stroke-width:1px"><circle cx="0" cy="-20" r="7.5" />
                <line x1="0" y1="-12.5" x2="0" y2="5" />
                <line x1="-15" y1="-5" x2="15" y2="-5" />
                <line x1="0" y1="5" x2="-15" y2="17" />
                <line x1="0" y1="5" x2="15" y2="17" /></g>
<text text-anchor="middle" x="62.6235" y="-137.6274" font-family="Helvetica,sans-Serif" font-size="10.00" fill="#000000">Backup Admin</text>
</g>
<!-- A1 -->
<g id="node2" class="node">
<title>A1</title>
<ellipse fill="none" stroke="#000000" cx="260.0807" cy="-316.6274" rx="65.9299" ry="18"/>
<text text-anchor="middle" x="260.0807" y="-313.6274" font-family="Helvetica,sans-Serif" font-size="10.00" fill="#000000">! Manage backups</text>
</g>
<!-- A0&#45;&gt;A1 -->
<g id="edge1" class="edge">
<title>A0&#45;&gt;A1</title>
<path fill="none" stroke="#000000" d="M87.1345,-201.6451C107.6947,-229.3267 139.396,-266.6083 175.247,-289.6274 185.3916,-296.141 197.2298,-301.192 208.7878,-305.0668"/>
</g>
<!-- A2 -->
<g id="node3" class="node">
<title>A2</title>
<ellipse fill="none" stroke="#000000" cx="260.0807" cy="-257.6274" rx="61.1316" ry="22.7556"/>
<text text-anchor="middle" x="260.0807" y="-260.6274" font-family="Helvetica,sans-Serif" font-size="10.00" fill="#000000">! See backup</text>
<text text-anchor="middle" x="260.0807" y="-248.6274" font-family="Helvetica,sans-Serif" font-size="10.00" fill="#000000">histories</text>
</g>
<!-- A0&#45;&gt;A2 -->
<g id="edge2" class="edge">
<title>A0&#45;&gt;A2</title>
<path fill="none" stroke="#000000" d="M124.3541,-201.1604C140.6658,-209.967 158.4202,-219.0449 175.247,-226.6274 187.8276,-232.2965 201.7834,-237.7312 214.6823,-242.4227"/>
</g>
<!-- A3 -->
<g id="node4" class="node">
<title>A3</title>
<ellipse fill="none" stroke="#000000" cx="260.0807" cy="-194.6274" rx="64.9903" ry="22.7556"/>
<text text-anchor="middle" x="260.0807" y="-197.6274" font-family="Helvetica,sans-Serif" font-size="10.00" fill="#000000">! Auto cleanup</text>
<text text-anchor="middle" x="260.0807" y="-185.6274" font-family="Helvetica,sans-Serif" font-size="10.00" fill="#000000">backups</text>
</g>
<!-- A0&#45;&gt;A3 -->
<g id="edge3" class="edge">
<title>A0&#45;&gt;A3</title>
<path fill="none" stroke="#000000" d="M124.288,-174.6839C148.3903,-178.2238 175.9403,-182.2699 199.898,-185.7885"/>
</g>
<!-- A8 -->
<g id="node9" class="node">
<title>A8</title>
<ellipse fill="none" stroke="#000000" cx="260.0807" cy="-135.6274" rx="63.8866" ry="18"/>
<text text-anchor="middle" x="260.0807" y="-132.6274" font-family="Helvetica,sans-Serif" font-size="10.00" fill="#000000">*Perform restores</text>
</g>
<!-- A0&#45;&gt;A8 -->
<g id="edge6" class="edge">
<title>A0&#45;&gt;A8</title>
<path fill="none" stroke="#000000" d="M124.288,-156.2586C149.6351,-152.4076 178.795,-147.9773 203.58,-144.2117"/>
</g>
<!-- A10 -->
<g id="node11" class="node">
<title>A10</title>
<ellipse fill="none" stroke="#000000" cx="260.0807" cy="-81.6274" rx="73.4609" ry="18"/>
<text text-anchor="middle" x="260.0807" y="-78.6274" font-family="Helvetica,sans-Serif" font-size="10.00" fill="#000000">+Backup SQL Server</text>
</g>
<!-- A0&#45;&gt;A10 -->
<g id="edge8" class="edge">
<title>A0&#45;&gt;A10</title>
<path fill="none" stroke="#000000" d="M124.3434,-132.1529C140.6553,-123.9274 158.4124,-115.5145 175.247,-108.6274 186.9773,-103.8285 199.8968,-99.3337 212.0402,-95.4406"/>
</g>
<!-- A11 -->
<g id="node12" class="node">
<title>A11</title>
<ellipse fill="none" stroke="#000000" cx="260.0807" cy="-22.6274" rx="75.5732" ry="22.7556"/>
<text text-anchor="middle" x="260.0807" y="-25.6274" font-family="Helvetica,sans-Serif" font-size="10.00" fill="#000000">+Record recovery</text>
<text text-anchor="middle" x="260.0807" y="-13.6274" font-family="Helvetica,sans-Serif" font-size="10.00" fill="#000000">tests</text>
</g>
<!-- A0&#45;&gt;A11 -->
<g id="edge9" class="edge">
<title>A0&#45;&gt;A11</title>
<path fill="none" stroke="#000000" d="M92.2418,-129.3769C113.3243,-105.4906 143.4551,-74.9791 175.247,-54.6274 184.9248,-48.4321 195.9815,-43.168 206.8436,-38.8078"/>
</g>
<!-- A4 -->
<g id="node5" class="node">
<title>A4</title>
<g transform="translate(62.6235,-435.6274)" style="fill:none;stroke:black;stroke-width:1px"><circle cx="0" cy="-20" r="7.5" />
                <line x1="0" y1="-12.5" x2="0" y2="5" />
                <line x1="-15" y1="-5" x2="15" y2="-5" />
                <line x1="0" y1="5" x2="-15" y2="17" />
                <line x1="0" y1="5" x2="15" y2="17" /></g>
<text text-anchor="middle" x="62.6235" y="-410.6274" font-family="Helvetica,sans-Serif" font-size="10.00" fill="#000000">IT Leadership</text>
</g>
<!-- A5 -->
<g id="node6" class="node">
<title>A5</title>
<ellipse fill="none" stroke="#000000" cx="260.0807" cy="-501.6274" rx="79.8289" ry="22.7556"/>
<text text-anchor="middle" x="260.0807" y="-504.6274" font-family="Helvetica,sans-Serif" font-size="10.00" fill="#000000">! See backup</text>
<text text-anchor="middle" x="260.0807" y="-492.6274" font-family="Helvetica,sans-Serif" font-size="10.00" fill="#000000">histories/schedules</text>
</g>
<!-- A4&#45;&gt;A5 -->
<g id="edge4" class="edge">
<title>A4&#45;&gt;A5</title>
<path fill="none" stroke="#000000" d="M122.403,-457.7005C149.3047,-466.2836 180.8012,-476.3328 206.8746,-484.6517"/>
</g>
<!-- A12 -->
<g id="node13" class="node">
<title>A12</title>
<ellipse fill="none" stroke="#000000" cx="260.0807" cy="-438.6274" rx="78.3048" ry="22.7556"/>
<text text-anchor="middle" x="260.0807" y="-441.6274" font-family="Helvetica,sans-Serif" font-size="10.00" fill="#000000">+Get weekly log of</text>
<text text-anchor="middle" x="260.0807" y="-429.6274" font-family="Helvetica,sans-Serif" font-size="10.00" fill="#000000">backups</text>
</g>
<!-- A4&#45;&gt;A12 -->
<g id="edge10" class="edge">
<title>A4&#45;&gt;A12</title>
<path fill="none" stroke="#000000" d="M122.403,-438.6274C141.1321,-438.6274 162.0882,-438.6274 181.8909,-438.6274"/>
</g>
<!-- A13 -->
<g id="node14" class="node">
<title>A13</title>
<ellipse fill="none" stroke="#000000" cx="260.0807" cy="-375.6274" rx="84.6678" ry="22.7556"/>
<text text-anchor="middle" x="260.0807" y="-378.6274" font-family="Helvetica,sans-Serif" font-size="10.00" fill="#000000">+See log of recovery</text>
<text text-anchor="middle" x="260.0807" y="-366.6274" font-family="Helvetica,sans-Serif" font-size="10.00" fill="#000000">tests</text>
</g>
<!-- A4&#45;&gt;A13 -->
<g id="edge11" class="edge">
<title>A4&#45;&gt;A13</title>
<path fill="none" stroke="#000000" d="M122.403,-419.5544C148.8507,-411.1161 179.7394,-401.2608 205.5498,-393.0259"/>
</g>
<!-- A6 -->
<g id="node7" class="node">
<title>A6</title>
<g transform="translate(62.6235,-687.6274)" style="fill:none;stroke:black;stroke-width:1px"><circle cx="0" cy="-20" r="7.5" />
                <line x1="0" y1="-12.5" x2="0" y2="5" />
                <line x1="-15" y1="-5" x2="15" y2="-5" />
                <line x1="0" y1="5" x2="-15" y2="17" />
                <line x1="0" y1="5" x2="15" y2="17" /></g>
<text text-anchor="middle" x="62.6235" y="-662.6274" font-family="Helvetica,sans-Serif" font-size="10.00" fill="#000000">Product Owner</text>
</g>
<!-- A7 -->
<g id="node8" class="node">
<title>A7</title>
<ellipse fill="none" stroke="#000000" cx="260.0807" cy="-825.6274" rx="70.7581" ry="31.2258"/>
<text text-anchor="middle" x="260.0807" y="-834.6274" font-family="Helvetica,sans-Serif" font-size="10.00" fill="#000000">! See product&#39;s</text>
<text text-anchor="middle" x="260.0807" y="-822.6274" font-family="Helvetica,sans-Serif" font-size="10.00" fill="#000000">backup</text>
<text text-anchor="middle" x="260.0807" y="-810.6274" font-family="Helvetica,sans-Serif" font-size="10.00" fill="#000000">history/schedule</text>
</g>
<!-- A6&#45;&gt;A7 -->
<g id="edge5" class="edge">
<title>A6&#45;&gt;A7</title>
<path fill="none" stroke="#000000" d="M100.2835,-726.6869C121.2962,-745.669 148.554,-768.4932 175.247,-785.6274 185.6613,-792.3123 197.3689,-798.5535 208.6841,-804.0251"/>
</g>
<!-- A9 -->
<g id="node10" class="node">
<title>A9</title>
<ellipse fill="none" stroke="#000000" cx="260.0807" cy="-753.6274" rx="64.6716" ry="22.7556"/>
<text text-anchor="middle" x="260.0807" y="-756.6274" font-family="Helvetica,sans-Serif" font-size="10.00" fill="#000000">*Get product&#39;s</text>
<text text-anchor="middle" x="260.0807" y="-744.6274" font-family="Helvetica,sans-Serif" font-size="10.00" fill="#000000">backup alerts</text>
</g>
<!-- A6&#45;&gt;A9 -->
<g id="edge7" class="edge">
<title>A6&#45;&gt;A9</title>
<path fill="none" stroke="#000000" d="M125.3715,-710.6476C153.4902,-719.619 186.1198,-730.0297 212.2223,-738.3579"/>
</g>
<!-- A14 -->
<g id="node15" class="node">
<title>A14</title>
<ellipse fill="none" stroke="#000000" cx="260.0807" cy="-690.6274" rx="65.9165" ry="22.7556"/>
<text text-anchor="middle" x="260.0807" y="-693.6274" font-family="Helvetica,sans-Serif" font-size="10.00" fill="#000000">+Email service</text>
<text text-anchor="middle" x="260.0807" y="-681.6274" font-family="Helvetica,sans-Serif" font-size="10.00" fill="#000000">requests</text>
</g>
<!-- A6&#45;&gt;A14 -->
<g id="edge12" class="edge">
<title>A6&#45;&gt;A14</title>
<path fill="none" stroke="#000000" d="M125.3715,-690.6274C147.2792,-690.6274 171.9252,-690.6274 194.0891,-690.6274"/>
</g>
<!-- A15 -->
<g id="node16" class="node">
<title>A15</title>
<ellipse fill="none" stroke="#000000" cx="260.0807" cy="-627.6274" rx="76.9471" ry="22.7556"/>
<text text-anchor="middle" x="260.0807" y="-630.6274" font-family="Helvetica,sans-Serif" font-size="10.00" fill="#000000">+Manually backup</text>
<text text-anchor="middle" x="260.0807" y="-618.6274" font-family="Helvetica,sans-Serif" font-size="10.00" fill="#000000">product</text>
</g>
<!-- A6&#45;&gt;A15 -->
<g id="edge13" class="edge">
<title>A6&#45;&gt;A15</title>
<path fill="none" stroke="#000000" d="M125.3715,-670.6073C151.9092,-662.1402 182.4649,-652.3913 207.7595,-644.3208"/>
</g>
<!-- A16 -->
<g id="node17" class="node">
<title>A16</title>
<ellipse fill="none" stroke="#000000" cx="260.0807" cy="-564.6274" rx="78.3048" ry="22.7556"/>
<text text-anchor="middle" x="260.0807" y="-567.6274" font-family="Helvetica,sans-Serif" font-size="10.00" fill="#000000">+Get weekly log of</text>
<text text-anchor="middle" x="260.0807" y="-555.6274" font-family="Helvetica,sans-Serif" font-size="10.00" fill="#000000">product&#39;s backup</text>
</g>
<!-- A6&#45;&gt;A16 -->
<g id="edge14" class="edge">
<title>A6&#45;&gt;A16</title>
<path fill="none" stroke="#000000" d="M98.6854,-654.5231C119.6472,-635.0629 147.3657,-611.7967 175.247,-595.6274 184.8779,-590.0422 195.692,-585.1705 206.2922,-581.0462"/>
</g>
</g>
</svg>
