<?xml version="1.0" encoding="UTF-8" standalone="no"?>
<!DOCTYPE svg PUBLIC "-//W3C//DTD SVG 1.1//EN"
 "http://www.w3.org/Graphics/SVG/1.1/DTD/svg11.dtd">
<!-- Generated by graphviz version 2.40.1 (20161225.0304)
 -->
<!-- Title: G Pages: 1 -->
<svg width="353pt" height="899pt"
 viewBox="0.00 0.00 352.91 898.74" xmlns="http://www.w3.org/2000/svg" xmlns:xlink="http://www.w3.org/1999/xlink">
<g id="graph0" class="graph" transform="scale(1 1) rotate(0) translate(4 894.7401)">
<title>G</title>
<polygon fill="#ffffff" stroke="transparent" points="-4,4 -4,-894.7401 348.9144,-894.7401 348.9144,4 -4,4"/>
<!-- A0 -->
<g id="node1" class="node">
<title>A0</title>
<g transform="translate(62.6235,-357.6274)" style="fill:none;stroke:black;stroke-width:1px"><circle cx="0" cy="-20" r="7.5" />
                <line x1="0" y1="-12.5" x2="0" y2="5" />
                <line x1="-15" y1="-5" x2="15" y2="-5" />
                <line x1="0" y1="5" x2="-15" y2="17" />
                <line x1="0" y1="5" x2="15" y2="17" /></g>
<text text-anchor="middle" x="62.6235" y="-332.6274" font-family="Helvetica,sans-Serif" font-size="10.00" fill="#000000">Backup Admin</text>
</g>
<!-- A1 -->
<g id="node2" class="node">
<title>A1</title>
<ellipse fill="none" stroke="#000000" cx="260.0807" cy="-505.6274" rx="64.9227" ry="18"/>
<text text-anchor="middle" x="260.0807" y="-502.6274" font-family="Helvetica,sans-Serif" font-size="10.00" fill="#000000">*Manage backups</text>
</g>
<!-- A0&#45;&gt;A1 -->
<g id="edge1" class="edge">
<title>A0&#45;&gt;A1</title>
<path fill="none" stroke="#000000" d="M89.0067,-396.7618C109.7852,-422.8657 140.902,-457.1704 175.247,-478.6274 185.7335,-485.1789 197.9505,-490.2724 209.7924,-494.1794"/>
</g>
<!-- A2 -->
<g id="node3" class="node">
<title>A2</title>
<ellipse fill="none" stroke="#000000" cx="260.0807" cy="-211.6274" rx="59.7714" ry="22.7556"/>
<text text-anchor="middle" x="260.0807" y="-214.6274" font-family="Helvetica,sans-Serif" font-size="10.00" fill="#000000">*See backup</text>
<text text-anchor="middle" x="260.0807" y="-202.6274" font-family="Helvetica,sans-Serif" font-size="10.00" fill="#000000">histories</text>
</g>
<!-- A0&#45;&gt;A2 -->
<g id="edge2" class="edge">
<title>A0&#45;&gt;A2</title>
<path fill="none" stroke="#000000" d="M89.7162,-324.3696C110.6278,-298.5468 141.5994,-264.6495 175.247,-242.6274 186.2681,-235.4142 199.1903,-229.597 211.5794,-225.0364"/>
</g>
<!-- A3 -->
<g id="node4" class="node">
<title>A3</title>
<ellipse fill="none" stroke="#000000" cx="260.0807" cy="-446.6274" rx="63.6305" ry="22.7556"/>
<text text-anchor="middle" x="260.0807" y="-449.6274" font-family="Helvetica,sans-Serif" font-size="10.00" fill="#000000">*Auto cleanup</text>
<text text-anchor="middle" x="260.0807" y="-437.6274" font-family="Helvetica,sans-Serif" font-size="10.00" fill="#000000">backups</text>
</g>
<!-- A0&#45;&gt;A3 -->
<g id="edge3" class="edge">
<title>A0&#45;&gt;A3</title>
<path fill="none" stroke="#000000" d="M124.1451,-391.3066C140.6148,-399.1943 158.498,-407.469 175.247,-414.6274 187.9845,-420.0714 201.9893,-425.5539 214.885,-430.4051"/>
</g>
<!-- A8 -->
<g id="node9" class="node">
<title>A8</title>
<ellipse fill="none" stroke="#000000" cx="260.0807" cy="-387.6274" rx="65.2319" ry="18"/>
<text text-anchor="middle" x="260.0807" y="-384.6274" font-family="Helvetica,sans-Serif" font-size="10.00" fill="#000000">~Perform restores</text>
</g>
<!-- A0&#45;&gt;A8 -->
<g id="edge7" class="edge">
<title>A0&#45;&gt;A8</title>
<path fill="none" stroke="#000000" d="M124.288,-369.0593C148.9561,-372.4324 177.2356,-376.2993 201.5791,-379.628"/>
</g>
<!-- A11 -->
<g id="node12" class="node">
<title>A11</title>
<ellipse fill="none" stroke="#000000" cx="260.0807" cy="-333.6274" rx="73.4609" ry="18"/>
<text text-anchor="middle" x="260.0807" y="-330.6274" font-family="Helvetica,sans-Serif" font-size="10.00" fill="#000000">+Backup SQL Server</text>
</g>
<!-- A0&#45;&gt;A11 -->
<g id="edge10" class="edge">
<title>A0&#45;&gt;A11</title>
<path fill="none" stroke="#000000" d="M124.288,-352.1955C147.0325,-349.0855 172.847,-345.5556 195.8159,-342.4149"/>
</g>
<!-- A12 -->
<g id="node13" class="node">
<title>A12</title>
<ellipse fill="none" stroke="#000000" cx="260.0807" cy="-274.6274" rx="75.5732" ry="22.7556"/>
<text text-anchor="middle" x="260.0807" y="-277.6274" font-family="Helvetica,sans-Serif" font-size="10.00" fill="#000000">+Record recovery</text>
<text text-anchor="middle" x="260.0807" y="-265.6274" font-family="Helvetica,sans-Serif" font-size="10.00" fill="#000000">tests</text>
</g>
<!-- A0&#45;&gt;A12 -->
<g id="edge11" class="edge">
<title>A0&#45;&gt;A12</title>
<path fill="none" stroke="#000000" d="M124.1451,-329.9482C140.6148,-322.0606 158.498,-313.7859 175.247,-306.6274 186.8266,-301.6784 199.4534,-296.6975 211.3422,-292.1879"/>
</g>
<!-- A4 -->
<g id="node5" class="node">
<title>A4</title>
<g transform="translate(62.6235,-114.6274)" style="fill:none;stroke:black;stroke-width:1px"><circle cx="0" cy="-20" r="7.5" />
                <line x1="0" y1="-12.5" x2="0" y2="5" />
                <line x1="-15" y1="-5" x2="15" y2="-5" />
                <line x1="0" y1="5" x2="-15" y2="17" />
                <line x1="0" y1="5" x2="15" y2="17" /></g>
<text text-anchor="middle" x="62.6235" y="-89.6274" font-family="Helvetica,sans-Serif" font-size="10.00" fill="#000000">IT Leadership</text>
</g>
<!-- A4&#45;&gt;A2 -->
<g id="edge4" class="edge">
<title>A4&#45;&gt;A2</title>
<path fill="none" stroke="#000000" d="M122.4893,-153.4448C139.279,-162.8458 157.7351,-172.5922 175.247,-180.6274 187.9312,-186.4475 202.0494,-191.9676 215.0713,-196.6929"/>
</g>
<!-- A5 -->
<g id="node6" class="node">
<title>A5</title>
<ellipse fill="none" stroke="#000000" cx="260.0807" cy="-148.6274" rx="59.7714" ry="22.7556"/>
<text text-anchor="middle" x="260.0807" y="-151.6274" font-family="Helvetica,sans-Serif" font-size="10.00" fill="#000000">*See backup</text>
<text text-anchor="middle" x="260.0807" y="-139.6274" font-family="Helvetica,sans-Serif" font-size="10.00" fill="#000000">schedules</text>
</g>
<!-- A4&#45;&gt;A5 -->
<g id="edge5" class="edge">
<title>A4&#45;&gt;A5</title>
<path fill="none" stroke="#000000" d="M122.403,-127.0126C148.5102,-131.1113 178.9447,-135.8894 204.5504,-139.9094"/>
</g>
<!-- A9 -->
<g id="node10" class="node">
<title>A9</title>
<ellipse fill="none" stroke="#000000" cx="260.0807" cy="-85.6274" rx="84.6678" ry="22.7556"/>
<text text-anchor="middle" x="260.0807" y="-88.6274" font-family="Helvetica,sans-Serif" font-size="10.00" fill="#000000">~See log of recovery</text>
<text text-anchor="middle" x="260.0807" y="-76.6274" font-family="Helvetica,sans-Serif" font-size="10.00" fill="#000000">tests</text>
</g>
<!-- A4&#45;&gt;A9 -->
<g id="edge8" class="edge">
<title>A4&#45;&gt;A9</title>
<path fill="none" stroke="#000000" d="M122.403,-107.9395C142.8347,-104.6284 165.9168,-100.8877 187.2605,-97.4287"/>
</g>
<!-- A13 -->
<g id="node14" class="node">
<title>A13</title>
<ellipse fill="none" stroke="#000000" cx="260.0807" cy="-22.6274" rx="78.3048" ry="22.7556"/>
<text text-anchor="middle" x="260.0807" y="-25.6274" font-family="Helvetica,sans-Serif" font-size="10.00" fill="#000000">+Get weekly log of</text>
<text text-anchor="middle" x="260.0807" y="-13.6274" font-family="Helvetica,sans-Serif" font-size="10.00" fill="#000000">backups</text>
</g>
<!-- A4&#45;&gt;A13 -->
<g id="edge12" class="edge">
<title>A4&#45;&gt;A13</title>
<path fill="none" stroke="#000000" d="M121.8522,-81.5245C138.797,-71.8713 157.4916,-61.8469 175.247,-53.6274 185.9194,-48.6869 197.6197,-43.9804 208.8297,-39.795"/>
</g>
<!-- A6 -->
<g id="node7" class="node">
<title>A6</title>
<g transform="translate(62.6235,-704.6274)" style="fill:none;stroke:black;stroke-width:1px"><circle cx="0" cy="-20" r="7.5" />
                <line x1="0" y1="-12.5" x2="0" y2="5" />
                <line x1="-15" y1="-5" x2="15" y2="-5" />
                <line x1="0" y1="5" x2="-15" y2="17" />
                <line x1="0" y1="5" x2="15" y2="17" /></g>
<text text-anchor="middle" x="62.6235" y="-679.6274" font-family="Helvetica,sans-Serif" font-size="10.00" fill="#000000">Product Owner</text>
</g>
<!-- A7 -->
<g id="node8" class="node">
<title>A7</title>
<ellipse fill="none" stroke="#000000" cx="260.0807" cy="-859.6274" rx="79.2734" ry="31.2258"/>
<text text-anchor="middle" x="260.0807" y="-868.6274" font-family="Helvetica,sans-Serif" font-size="10.00" fill="#000000">*See product&#39;s</text>
<text text-anchor="middle" x="260.0807" y="-856.6274" font-family="Helvetica,sans-Serif" font-size="10.00" fill="#000000">backup history and</text>
<text text-anchor="middle" x="260.0807" y="-844.6274" font-family="Helvetica,sans-Serif" font-size="10.00" fill="#000000">schedule</text>
</g>
<!-- A6&#45;&gt;A7 -->
<g id="edge6" class="edge">
<title>A6&#45;&gt;A7</title>
<path fill="none" stroke="#000000" d="M92.956,-743.6695C114.2374,-767.385 144.3171,-797.9358 175.247,-819.6274 184.4457,-826.0786 194.8486,-831.9581 205.1384,-837.1054"/>
</g>
<!-- A10 -->
<g id="node11" class="node">
<title>A10</title>
<ellipse fill="none" stroke="#000000" cx="260.0807" cy="-787.6274" rx="65.9292" ry="22.7556"/>
<text text-anchor="middle" x="260.0807" y="-790.6274" font-family="Helvetica,sans-Serif" font-size="10.00" fill="#000000">~Get product&#39;s</text>
<text text-anchor="middle" x="260.0807" y="-778.6274" font-family="Helvetica,sans-Serif" font-size="10.00" fill="#000000">backup alerts</text>
</g>
<!-- A6&#45;&gt;A10 -->
<g id="edge9" class="edge">
<title>A6&#45;&gt;A10</title>
<path fill="none" stroke="#000000" d="M125.483,-735.7693C141.6219,-742.7758 159.0117,-750.136 175.247,-756.6274 187.7685,-761.6339 201.451,-766.7752 214.1013,-771.3956"/>
</g>
<!-- A14 -->
<g id="node15" class="node">
<title>A14</title>
<ellipse fill="none" stroke="#000000" cx="260.0807" cy="-707.6274" rx="81.4796" ry="39.6962"/>
<text text-anchor="middle" x="260.0807" y="-722.6274" font-family="Helvetica,sans-Serif" font-size="10.00" fill="#000000">+Email request to</text>
<text text-anchor="middle" x="260.0807" y="-710.6274" font-family="Helvetica,sans-Serif" font-size="10.00" fill="#000000">restore product and</text>
<text text-anchor="middle" x="260.0807" y="-698.6274" font-family="Helvetica,sans-Serif" font-size="10.00" fill="#000000">to change product&#39;s</text>
<text text-anchor="middle" x="260.0807" y="-686.6274" font-family="Helvetica,sans-Serif" font-size="10.00" fill="#000000">backup schedule</text>
</g>
<!-- A6&#45;&gt;A14 -->
<g id="edge13" class="edge">
<title>A6&#45;&gt;A14</title>
<path fill="none" stroke="#000000" d="M125.3715,-707.6274C142.1975,-707.6274 160.6388,-707.6274 178.3303,-707.6274"/>
</g>
<!-- A15 -->
<g id="node16" class="node">
<title>A15</title>
<ellipse fill="none" stroke="#000000" cx="260.0807" cy="-627.6274" rx="76.9471" ry="22.7556"/>
<text text-anchor="middle" x="260.0807" y="-630.6274" font-family="Helvetica,sans-Serif" font-size="10.00" fill="#000000">+Manually backup</text>
<text text-anchor="middle" x="260.0807" y="-618.6274" font-family="Helvetica,sans-Serif" font-size="10.00" fill="#000000">product</text>
</g>
<!-- A6&#45;&gt;A15 -->
<g id="edge14" class="edge">
<title>A6&#45;&gt;A15</title>
<path fill="none" stroke="#000000" d="M125.483,-679.4855C141.6219,-672.4791 159.0117,-665.1188 175.247,-658.6274 186.6037,-654.0866 198.9155,-649.435 210.5459,-645.1617"/>
</g>
<!-- A16 -->
<g id="node17" class="node">
<title>A16</title>
<ellipse fill="none" stroke="#000000" cx="260.0807" cy="-564.6274" rx="78.3048" ry="22.7556"/>
<text text-anchor="middle" x="260.0807" y="-567.6274" font-family="Helvetica,sans-Serif" font-size="10.00" fill="#000000">+Get weekly log of</text>
<text text-anchor="middle" x="260.0807" y="-555.6274" font-family="Helvetica,sans-Serif" font-size="10.00" fill="#000000">product&#39;s backup</text>
</g>
<!-- A6&#45;&gt;A16 -->
<g id="edge15" class="edge">
<title>A6&#45;&gt;A16</title>
<path fill="none" stroke="#000000" d="M91.655,-671.4562C112.7,-647.2245 143.0211,-616.1237 175.247,-595.6274 184.3765,-589.8209 194.7476,-584.8923 205.0277,-580.7904"/>
</g>
</g>
</svg>
